<svg width="169" height="168" viewBox="0 0 169 168" fill="none" xmlns="http://www.w3.org/2000/svg">
<path d="M66.6051 120.5C66.6051 83.06 104.305 82.54 104.305 46.4C104.305 20.4 84.8051 0.899987 52.3051 0.899987C22.1451 0.899987 1.60508 21.7 0.30508 54.2H31.5051C31.5051 38.6 40.6051 29.5 52.3051 29.5C65.5651 29.5 73.1051 37.3 73.1051 49C73.1051 72.4 36.7051 72.4 36.7051 120.5H66.6051ZM35.4051 150.4C35.4051 159.5 43.2051 167.3 52.3051 167.3C61.4051 167.3 69.2051 159.5 69.2051 150.4C69.2051 141.3 61.4051 133.5 52.3051 133.5C43.2051 133.5 35.4051 141.3 35.4051 150.4ZM134.256 150.4C134.256 159.5 142.056 167.3 151.156 167.3C160.256 167.3 168.056 159.5 168.056 150.4C168.056 141.3 160.256 133.5 151.156 133.5C142.056 133.5 134.256 141.3 134.256 150.4ZM138.156 120.5H164.156L168.056 2.19999H134.256L138.156 120.5Z" fill="black"/>
<path d="M66.6051 120.5C66.6051 83.06 104.305 82.54 104.305 46.4C104.305 20.4 84.8051 0.899987 52.3051 0.899987C22.1451 0.899987 1.60508 21.7 0.30508 54.2H31.5051C31.5051 38.6 40.6051 29.5 52.3051 29.5C65.5651 29.5 73.1051 37.3 73.1051 49C73.1051 72.4 36.7051 72.4 36.7051 120.5H66.6051ZM35.4051 150.4C35.4051 159.5 43.2051 167.3 52.3051 167.3C61.4051 167.3 69.2051 159.5 69.2051 150.4C69.2051 141.3 61.4051 133.5 52.3051 133.5C43.2051 133.5 35.4051 141.3 35.4051 150.4ZM134.256 150.4C134.256 159.5 142.056 167.3 151.156 167.3C160.256 167.3 168.056 159.5 168.056 150.4C168.056 141.3 160.256 133.5 151.156 133.5C142.056 133.5 134.256 141.3 134.256 150.4ZM138.156 120.5H164.156L168.056 2.19999H134.256L138.156 120.5Z" fill="url(#paint0_linear)"/>
<defs>
<linearGradient id="paint0_linear" x1="90" y1="-39" x2="78.5" y2="509" gradientUnits="userSpaceOnUse">
<stop stop-color="white"/>
<stop offset="1" stop-color="#FFBB37"/>
</linearGradient>
</defs>
</svg>
