<svg width="16" height="17" viewBox="0 0 16 17" fill="none" xmlns="http://www.w3.org/2000/svg">
<path d="M7.99916 2.40723C4.6394 2.40723 1.90601 5.14062 1.90601 8.50038C1.90601 11.8602 4.6394 14.5935 7.99916 14.5935C11.3589 14.5935 14.0923 11.8602 14.0923 8.50038C14.0923 5.14062 11.3589 2.40723 7.99916 2.40723ZM7.99916 3.34464C10.522 3.34464 12.6272 5.16611 13.0693 7.56298C12.775 7.51764 11.0336 7.84054 9.7084 6.42837C8.9586 5.62926 7.97076 5.6821 7.99895 5.68813C7.34476 5.68813 6.73779 5.95107 6.28996 6.42834C5.61333 7.14939 4.63415 7.56294 3.60353 7.56294H2.92906C3.37118 5.16611 5.47635 3.34464 7.99916 3.34464ZM3.21838 10.4299C5.03511 10.0475 6.77653 11.5704 6.5819 13.458C5.05114 13.0198 3.80979 11.89 3.21838 10.4299ZM7.5054 13.6324C7.82349 11.0549 5.44891 8.9574 2.9469 9.53069C2.87913 9.19766 2.84341 8.85313 2.84341 8.50038C3.15392 8.45098 5.32477 8.82676 6.97358 7.06981C7.52771 6.47918 8.46634 6.47458 9.02481 7.06984C10.6752 8.82848 12.837 8.4498 13.1549 8.50038C13.1549 8.85313 13.1192 9.19766 13.0515 9.53069C10.5444 8.95634 8.17555 11.0604 8.49296 13.6324C8.17371 13.6629 7.84968 13.6652 7.5054 13.6324ZM9.41643 13.458C9.22158 11.5683 10.9654 10.048 12.78 10.4299C12.1886 11.89 10.9472 13.0198 9.41643 13.458Z" fill="white"/>
<path d="M9.40524 8.9691C9.40524 8.19377 8.77449 7.56299 7.99913 7.56299C7.22377 7.56299 6.59302 8.19377 6.59302 8.9691C6.59302 9.74443 7.22377 10.3752 7.99913 10.3752C8.77449 10.3752 9.40524 9.74446 9.40524 8.9691ZM7.99913 9.43781C7.74069 9.43781 7.53043 9.22758 7.53043 8.9691C7.53043 8.71066 7.74069 8.5004 7.99913 8.5004C8.25761 8.5004 8.46784 8.71066 8.46784 8.9691C8.46784 9.22758 8.25761 9.43781 7.99913 9.43781Z" fill="white"/>
<path d="M13.649 2.85037C12.134 1.33533 10.1275 0.500977 7.99922 0.500977C3.59465 0.500977 0 4.09591 0 8.5002C0 12.9048 3.59493 16.4994 7.99922 16.4994C10.1275 16.4994 12.134 15.6651 13.649 14.15C16.7831 11.016 16.7842 5.98554 13.649 2.85037ZM7.99922 15.562C4.10532 15.562 0.937409 12.3941 0.937409 8.5002C0.937409 4.6063 4.10532 1.43839 7.99922 1.43839C11.8931 1.43839 15.061 4.6063 15.061 8.5002C15.061 12.3941 11.8931 15.562 7.99922 15.562Z" fill="white"/>
</svg>
