<svg width="20" height="20" viewBox="0 0 20 20" fill="none" xmlns="http://www.w3.org/2000/svg">
<path fill-rule="evenodd" clip-rule="evenodd" d="M10.0001 18.3332C14.6025 18.3332 18.3334 14.6022 18.3334 9.99984C18.3334 5.39746 14.6025 1.6665 10.0001 1.6665C5.39771 1.6665 1.66675 5.39746 1.66675 9.99984C1.66675 14.6022 5.39771 18.3332 10.0001 18.3332ZM6.72986 13.27C6.5346 13.0748 6.5346 12.7582 6.72986 12.5629L9.29306 9.99972L6.73096 7.43763C6.5357 7.24236 6.5357 6.92578 6.73096 6.73052C6.92622 6.53526 7.24281 6.53526 7.43807 6.73052L10.0002 9.29261L12.5632 6.72962C12.7584 6.53435 13.075 6.53435 13.2703 6.72962C13.4655 6.92488 13.4655 7.24146 13.2703 7.43672L10.7073 9.99972L13.2714 12.5638C13.4666 12.7591 13.4666 13.0757 13.2714 13.2709C13.0761 13.4662 12.7595 13.4662 12.5643 13.2709L10.0002 10.7068L7.43697 13.27C7.24171 13.4653 6.92512 13.4653 6.72986 13.27Z" fill="white"/>
<path fill-rule="evenodd" clip-rule="evenodd" d="M10.0001 18.3332C14.6025 18.3332 18.3334 14.6022 18.3334 9.99984C18.3334 5.39746 14.6025 1.6665 10.0001 1.6665C5.39771 1.6665 1.66675 5.39746 1.66675 9.99984C1.66675 14.6022 5.39771 18.3332 10.0001 18.3332ZM6.72986 13.27C6.5346 13.0748 6.5346 12.7582 6.72986 12.5629L9.29306 9.99972L6.73096 7.43763C6.5357 7.24236 6.5357 6.92578 6.73096 6.73052C6.92622 6.53526 7.24281 6.53526 7.43807 6.73052L10.0002 9.29261L12.5632 6.72962C12.7584 6.53435 13.075 6.53435 13.2703 6.72962C13.4655 6.92488 13.4655 7.24146 13.2703 7.43672L10.7073 9.99972L13.2714 12.5638C13.4666 12.7591 13.4666 13.0757 13.2714 13.2709C13.0761 13.4662 12.7595 13.4662 12.5643 13.2709L10.0002 10.7068L7.43697 13.27C7.24171 13.4653 6.92512 13.4653 6.72986 13.27Z" fill="#15212C" fill-opacity="0.8"/>
</svg>
