<svg width="40" height="40" viewBox="0 0 40 40" fill="none" xmlns="http://www.w3.org/2000/svg">
<path fill-rule="evenodd" clip-rule="evenodd" d="M19.6666 36.3333C28.8713 36.3333 36.3332 28.8714 36.3332 19.6667C36.3332 10.4619 28.8713 3 19.6666 3C10.4618 3 2.99991 10.4619 2.99991 19.6667C2.99991 28.8714 10.4618 36.3333 19.6666 36.3333ZM13.6462 26.0203C13.451 25.825 13.451 25.5084 13.6462 25.3132L19.1265 19.8329L13.8156 14.522C13.6204 14.3267 13.6204 14.0101 13.8156 13.8149C14.0109 13.6196 14.3275 13.6196 14.5227 13.8149L19.8336 19.1258L25.3129 13.6466C25.5081 13.4513 25.8247 13.4513 26.02 13.6466C26.2152 13.8418 26.2152 14.1584 26.02 14.3537L20.5407 19.8329L26.1893 25.4815C26.3846 25.6768 26.3846 25.9933 26.1893 26.1886C25.9941 26.3839 25.6775 26.3839 25.4822 26.1886L19.8336 20.54L14.3534 26.0203C14.1581 26.2155 13.8415 26.2155 13.6462 26.0203Z" fill="#151C22"/>
</svg>
