<svg width="64" height="64" viewBox="0 0 64 64" fill="none" xmlns="http://www.w3.org/2000/svg">
<path d="M11.5148 16.848C10.4005 17.9623 9.51652 19.2851 8.91346 20.7411C8.31039 22.197 8 23.7574 8 25.3333C8 26.9092 8.31039 28.4696 8.91346 29.9255C9.51652 31.3814 10.4005 32.7043 11.5148 33.8186L32.0001 54.304L52.4854 33.8186C54.7359 31.5682 56.0002 28.5159 56.0002 25.3333C56.0002 22.1507 54.7359 19.0984 52.4854 16.848C50.235 14.5975 47.1827 13.3332 44.0001 13.3332C40.8175 13.3332 37.7652 14.5975 35.5148 16.848L32.0001 20.3626L28.4854 16.848C27.3711 15.7336 26.0483 14.8497 24.5923 14.2467C23.1364 13.6436 21.576 13.3332 20.0001 13.3332C18.4242 13.3332 16.8638 13.6436 15.4079 14.2467C13.952 14.8497 12.6291 15.7336 11.5148 16.848V16.848Z" stroke="#267CCC" stroke-width="4" stroke-linecap="round" stroke-linejoin="round"/>
</svg>
