<svg width="64" height="64" viewBox="0 0 64 64" fill="none" xmlns="http://www.w3.org/2000/svg">
<path d="M32.0001 28.8C28.4709 28.8 25.6001 31.6708 25.6001 35.2C25.6001 38.7292 28.4709 41.6 32.0001 41.6C35.5293 41.6 38.4001 38.7292 38.4001 35.2C38.4001 31.6708 35.5293 28.8 32.0001 28.8ZM32.0001 39.4667C29.6474 39.4667 27.7334 37.5531 27.7334 35.2C27.7334 32.8469 29.6474 30.9333 32.0001 30.9333C34.3528 30.9333 36.2668 32.8469 36.2668 35.2C36.2668 37.5531 34.3528 39.4667 32.0001 39.4667Z" fill="black"/>
<path d="M32 0C14.3552 0 0 14.3552 0 32C0 49.6448 14.3552 64 32 64C49.6448 64 64 49.6448 64 32C64 14.3552 49.6448 0 32 0ZM32 61.8667C15.5312 61.8667 2.13333 48.4688 2.13333 32C2.13333 15.5312 15.5312 2.13333 32 2.13333C48.4688 2.13333 61.8667 15.5312 61.8667 32C61.8667 48.4688 48.4688 61.8667 32 61.8667Z" fill="#267CCC"/>
<path d="M31.9999 6.39999C17.8843 6.39999 6.3999 17.8844 6.3999 32C6.3999 46.1156 17.8843 57.6 31.9999 57.6C46.1155 57.6 57.5999 46.1156 57.5999 32C57.5999 17.8844 46.1155 6.39999 31.9999 6.39999ZM31.9999 8.53333C41.9712 8.53333 50.504 14.7873 53.897 23.5767L45.9052 26.2405C43.164 27.1541 40.2006 27.0113 37.5583 25.8364C34.026 24.2656 29.9734 24.2656 26.4422 25.8364L26.038 26.0156C23.6359 27.0844 20.9126 27.3 18.3698 26.6219L9.82283 24.3427C13.0052 15.1528 21.7414 8.53333 31.9999 8.53333ZM8.53324 32C8.53324 31.7827 8.54377 31.5679 8.54977 31.352L9.29057 31.5989C19.8074 35.1044 27.2448 44.2927 28.5678 55.2132C17.2496 53.5471 8.53324 43.7736 8.53324 32ZM31.9999 55.4667C31.5763 55.4667 31.1556 55.454 30.7375 55.4317C29.477 43.4848 21.421 33.3939 9.9655 29.576L8.71137 29.158C8.82564 28.2167 8.99377 27.292 9.21644 26.3881L17.8196 28.6824C18.9727 28.9897 20.1566 29.1428 21.3394 29.1428C23.2456 29.1428 25.1472 28.7469 26.9039 27.9657L27.308 27.7865C30.2892 26.4595 33.7091 26.4605 36.6944 27.7876C39.822 29.1761 43.3324 29.3469 46.5799 28.2636L54.5718 25.5996C54.8992 26.7525 55.1404 27.9408 55.2882 29.158L54.034 29.576C42.5784 33.3939 34.5226 43.4848 33.262 55.4317C32.8442 55.454 32.4235 55.4667 31.9999 55.4667ZM35.4322 55.2132C36.7551 44.2927 44.1924 35.1044 54.7094 31.5989L55.4502 31.352C55.456 31.5679 55.4667 31.7827 55.4667 32C55.4666 43.7736 46.7502 53.5471 35.4322 55.2132Z" fill="black"/>
</svg>
