<svg width="64" height="64" viewBox="0 0 64 64" fill="none" xmlns="http://www.w3.org/2000/svg">
<g clip-path="url(#clip0)">
<path d="M43.6027 12.4038C40.4643 15.5422 30.558 25.4485 30.558 25.4485C30.558 25.4485 6.17995 22.4924 5.7884 22.4518C5.39685 22.4112 4.91022 22.3031 4.23517 22.8434C3.41058 23.5037 2.35781 24.3698 2.02071 24.6533C1.63954 24.974 1.52112 25.3966 2.22643 25.7164C3.14523 26.1339 22.0061 34.0003 22.0061 34.0003L11.0168 44.9896C11.0168 44.9896 4.81083 43.0328 3.74854 42.6965C3.26537 42.5435 2.83752 42.821 2.34398 43.2903L1.73634 43.898C1.6283 44.006 1.46667 44.1677 1.7908 44.4382C2.23075 44.8055 11.8518 51.0695 11.8518 51.0695C11.8518 51.0695 18.1693 60.6507 18.4831 61.1305C18.6853 61.4416 18.9152 61.293 19.0233 61.1849L19.6309 60.5773C20.4581 59.7345 20.3872 59.6844 20.2247 59.1727C19.8885 58.1104 17.9316 51.9044 17.9316 51.9044L28.9209 40.9151C28.9209 40.9151 36.7873 59.776 37.2048 60.6948C37.5255 61.401 37.9482 61.2826 38.268 60.9005C38.5515 60.5635 39.4176 59.5107 40.0779 58.6861C40.6181 58.011 40.5101 57.5244 40.4695 57.1329C40.4288 56.7413 37.4736 32.3624 37.4736 32.3624C37.4736 32.3624 47.3799 22.4561 50.5184 19.3177C53.7735 16.0625 52.4484 12.1479 51.6109 11.3104C50.7733 10.4728 46.844 9.16247 43.6027 12.4038Z" stroke="#267CCC" stroke-width="4" stroke-linecap="round" stroke-linejoin="round"/>
</g>
<defs>
<clipPath id="clip0">
<rect width="64" height="64" fill="white"/>
</clipPath>
</defs>
</svg>
