<svg width="20" height="21" viewBox="0 0 20 21" fill="none" xmlns="http://www.w3.org/2000/svg">
<path fill-rule="evenodd" clip-rule="evenodd" d="M9.99991 20.5C15.5228 20.5 19.9999 16.0228 19.9999 10.5C19.9999 4.97715 15.5228 0.5 9.99991 0.5C4.47706 0.5 -9.15527e-05 4.97715 -9.15527e-05 10.5C-9.15527e-05 16.0228 4.47706 20.5 9.99991 20.5ZM6.14625 14.3535C5.95099 14.1583 5.95099 13.8417 6.14625 13.6464L9.2928 10.4999L6.14755 7.35462C5.95229 7.15936 5.95229 6.84278 6.14755 6.64752C6.34281 6.45226 6.6594 6.45226 6.85466 6.64752L9.99991 9.79276L13.1462 6.64645C13.3415 6.45119 13.6581 6.45119 13.8533 6.64645C14.0486 6.84171 14.0486 7.1583 13.8533 7.35356L10.707 10.4999L13.8546 13.6475C14.0499 13.8427 14.0499 14.1593 13.8546 14.3546C13.6594 14.5499 13.3428 14.5499 13.1475 14.3546L9.99991 11.207L6.85336 14.3535C6.6581 14.5488 6.34152 14.5488 6.14625 14.3535Z" fill="white"/>
</svg>
