<svg width="40" height="40" viewBox="0 0 40 40" fill="none" xmlns="http://www.w3.org/2000/svg">
<path fill-rule="evenodd" clip-rule="evenodd" d="M19.9999 36.6666C29.2047 36.6666 36.6666 29.2047 36.6666 20C36.6666 10.7952 29.2047 3.33331 19.9999 3.33331C10.7952 3.33331 3.33325 10.7952 3.33325 20C3.33325 29.2047 10.7952 36.6666 19.9999 36.6666ZM13.813 26.1868C13.6177 25.9915 13.6177 25.675 13.813 25.4797L19.293 19.9997L13.8153 14.522C13.62 14.3267 13.62 14.0101 13.8153 13.8149C14.0105 13.6196 14.3271 13.6196 14.5224 13.8149L20.0001 19.2926L25.4796 13.8131C25.6749 13.6178 25.9914 13.6178 26.1867 13.8131C26.382 14.0084 26.382 14.3249 26.1867 14.5202L20.7072 19.9997L26.189 25.4815C26.3842 25.6768 26.3842 25.9933 26.189 26.1886C25.9937 26.3839 25.6771 26.3839 25.4819 26.1886L20.0001 20.7068L14.5201 26.1868C14.3248 26.3821 14.0083 26.3821 13.813 26.1868Z" fill="white"/>
<path fill-rule="evenodd" clip-rule="evenodd" d="M19.9999 36.6666C29.2047 36.6666 36.6666 29.2047 36.6666 20C36.6666 10.7952 29.2047 3.33331 19.9999 3.33331C10.7952 3.33331 3.33325 10.7952 3.33325 20C3.33325 29.2047 10.7952 36.6666 19.9999 36.6666ZM13.813 26.1868C13.6177 25.9915 13.6177 25.675 13.813 25.4797L19.293 19.9997L13.8153 14.522C13.62 14.3267 13.62 14.0101 13.8153 13.8149C14.0105 13.6196 14.3271 13.6196 14.5224 13.8149L20.0001 19.2926L25.4796 13.8131C25.6749 13.6178 25.9914 13.6178 26.1867 13.8131C26.382 14.0084 26.382 14.3249 26.1867 14.5202L20.7072 19.9997L26.189 25.4815C26.3842 25.6768 26.3842 25.9933 26.189 26.1886C25.9937 26.3839 25.6771 26.3839 25.4819 26.1886L20.0001 20.7068L14.5201 26.1868C14.3248 26.3821 14.0083 26.3821 13.813 26.1868Z" fill="#267CCC"/>
</svg>
