<svg width="24" height="24" viewBox="0 0 24 24" fill="none" xmlns="http://www.w3.org/2000/svg">
<path d="M13 21H14C17.866 21 21 17.866 21 14V14M13 21H8C5.23858 21 3 18.7614 3 16V8C3 5.23858 5.23858 3 8 3H16C18.7614 3 21 5.23858 21 8V14M13 21V19C13 16.2386 15.2386 14 18 14H21" stroke="white" stroke-width="1.4"/>
<path d="M8 14C8.58225 15.6473 10.1533 16.8276 12 16.8276C12.5804 16.8276 13.1335 16.711 13.6373 16.5" stroke="white" stroke-width="1.4" stroke-linecap="round" stroke-linejoin="round"/>
<ellipse cx="9" cy="10.5" rx="1" ry="1.5" fill="white"/>
<ellipse cx="15" cy="10.5" rx="1" ry="1.5" fill="white"/>
</svg>
