<svg width="24" height="24" viewBox="0 0 24 24" fill="none" xmlns="http://www.w3.org/2000/svg">
<path fill-rule="evenodd" clip-rule="evenodd" d="M5.29289 17.2934C4.90237 17.684 4.90237 18.3171 5.29289 18.7077C5.68342 19.0982 6.31658 19.0982 6.70711 18.7077L12.0006 13.4142L17.2958 18.7094C17.6863 19.0999 18.3195 19.0999 18.71 18.7094C19.1005 18.3189 19.1005 17.6857 18.71 17.2952L13.4148 12L18.7077 6.70711C19.0982 6.31658 19.0982 5.68342 18.7077 5.29289C18.3171 4.90237 17.684 4.90237 17.2934 5.29289L12.0006 10.5858L6.70947 5.29465C6.31895 4.90413 5.68578 4.90413 5.29526 5.29465C4.90473 5.68517 4.90473 6.31834 5.29526 6.70886L10.5864 12L5.29289 17.2934Z" fill="#FFFFFF"/>
</svg>
