<svg width="64" height="64" viewBox="0 0 64 64" fill="none" xmlns="http://www.w3.org/2000/svg">
<path d="M42.4347 7C41.9322 7.62821 41.3297 8.7012 40.8832 10.1304M41.3912 20.5652C39.7915 16.2993 40.0936 12.6579 40.8832 10.1304M41.3912 20.5652C45.0342 22.6469 48.8665 22.6738 51.8261 22.0617M41.3912 20.5652C39.007 19.915 34.7319 19.4268 30.8384 20.5652M41.3912 20.5652C43.0266 24.9262 42.9533 28.7177 42.064 31.7908M38.2609 38.3043C39.7559 36.8093 41.2509 34.6003 42.064 31.7908M38.2609 38.3043L24.6957 24.7391M38.2609 38.3043C37.2107 39.3545 35.1036 40.6689 32.3386 41.3168M22.6087 40.3913C21.926 38.5708 21.2433 34.9338 22.0217 31M22.6087 40.3913C26.2375 41.9465 29.6087 41.9565 32.3386 41.3168M22.6087 40.3913C18.9589 38.8271 15.1192 39.3526 12.1573 40.3913M22.6087 40.3913C23.3343 42.3263 23.6563 46.7168 22.6623 50.8963M8 42.4783C8.91404 41.8254 10.3771 41.0156 12.1573 40.3913M56 20.5652C55.0831 21.0891 53.6138 21.692 51.8261 22.0617M24.6957 24.7391C26.2686 22.537 28.4837 21.2537 30.8384 20.5652M24.6957 24.7391C23.2526 26.7595 22.4331 28.9212 22.0217 31M20.5217 56.0435C21.5389 54.5177 22.2269 52.7273 22.6623 50.8963M40.8832 10.1304L51.8261 22.0617M30.8384 20.5652L42.064 31.7908M22.0217 31L32.3386 41.3168M12.1573 40.3913L22.6623 50.8963" stroke="#267CCC" stroke-width="4" stroke-linecap="round" stroke-linejoin="round"/>
</svg>
