<svg width="64" height="64" viewBox="0 0 64 64" fill="none" xmlns="http://www.w3.org/2000/svg">
<path fill-rule="evenodd" clip-rule="evenodd" d="M28.81 5.97259C30.2564 4.78505 32.3328 4.75907 33.8084 5.91005L59.8967 26.2589C60.7677 26.9383 60.923 28.1951 60.2437 29.066C59.5643 29.937 58.3076 30.0923 57.4366 29.4129L52.6667 25.6924V52.5026C52.6667 54.7118 50.8758 56.5026 48.6667 56.5026H15.3333C13.1242 56.5026 11.3333 54.7117 11.3333 52.5026V25.4974L6.60245 29.3817C5.74877 30.0826 4.48851 29.9588 3.78758 29.1051C3.08666 28.2514 3.2105 26.9911 4.06419 26.2902L28.81 5.97259ZM31.3483 9.06406L48.6667 22.5724V52.5026H15.3333V22.5026C15.3333 22.4096 15.327 22.3181 15.3147 22.2285L31.3483 9.06406ZM26.6666 40.6665C25.5621 40.6665 24.6666 41.5619 24.6666 42.6665C24.6666 43.7711 25.5621 44.6665 26.6666 44.6665H37.3333C38.4379 44.6665 39.3333 43.7711 39.3333 42.6665C39.3333 41.5619 38.4379 40.6665 37.3333 40.6665H26.6666Z" fill="#267CCC"/>
</svg>
