<svg width="25" height="24" viewBox="0 0 25 24" fill="none" xmlns="http://www.w3.org/2000/svg">
<path d="M4.72222 12V19.7778C4.72222 20.3671 4.95635 20.9324 5.3731 21.3491C5.78984 21.7659 6.35507 22 6.94444 22H18.0556C18.6449 22 19.2102 21.7659 19.6269 21.3491C20.0436 20.9324 20.2778 20.3671 20.2778 19.7778V12M12.5 7.55556V22V7.55556ZM12.5 7.55556V5.33333C12.5 4.89382 12.6303 4.46418 12.8745 4.09873C13.1187 3.73329 13.4658 3.44846 13.8718 3.28027C14.2779 3.11207 14.7247 3.06807 15.1558 3.15381C15.5868 3.23956 15.9828 3.4512 16.2936 3.76199C16.6044 4.07277 16.816 4.46873 16.9017 4.8998C16.9875 5.33087 16.9435 5.77768 16.7753 6.18374C16.6071 6.5898 16.3223 6.93686 15.9568 7.18104C15.5914 7.42523 15.1617 7.55556 14.7222 7.55556H12.5ZM12.5 7.55556V4.77778C12.5 4.22839 12.3371 3.69133 12.0319 3.23453C11.7266 2.77773 11.2928 2.42169 10.7852 2.21145C10.2777 2.0012 9.71914 1.94619 9.1803 2.05338C8.64147 2.16056 8.14651 2.42511 7.75804 2.81359C7.36956 3.20207 7.105 3.69703 6.99782 4.23586C6.89064 4.7747 6.94565 5.33322 7.15589 5.84079C7.36613 6.34836 7.72217 6.78219 8.17897 7.08742C8.63577 7.39264 9.17283 7.55556 9.72222 7.55556H12.5ZM4.72222 12H20.2778H4.72222ZM4.72222 12C4.13285 12 3.56762 11.7659 3.15087 11.3491C2.73413 10.9324 2.5 10.3671 2.5 9.77778C2.5 9.18841 2.73413 8.62318 3.15087 8.20643C3.56762 7.78968 4.13285 7.55556 4.72222 7.55556H20.2778C20.8671 7.55556 21.4324 7.78968 21.8491 8.20643C22.2659 8.62318 22.5 9.18841 22.5 9.77778C22.5 10.3671 22.2659 10.9324 21.8491 11.3491C21.4324 11.7659 20.8671 12 20.2778 12H4.72222Z" stroke="#267CCC" stroke-width="2" stroke-linecap="round" stroke-linejoin="round"/>
</svg>
