<svg width="24" height="24" viewBox="0 0 24 24" fill="none" xmlns="http://www.w3.org/2000/svg">
<path d="M8.17675 18.2162C7.76722 19.7759 8.46076 21.2793 9.0285 22C2.49888 18.7568 2.87266 12.9955 7.04084 9.02703C9.31188 6.86481 9.31207 5.78378 9.02837 2C12.2077 2.86486 14.895 6.68469 15.8413 8.48649C16.7497 7.62162 16.9768 5.96396 16.9768 5.24324C18.3015 6.32432 20.6667 10.1081 20.6667 14.4324C20.6667 18.7568 16.6925 21.0991 14.4215 22C14.9893 21.6396 15.8945 19.4786 15.8413 17.6757C15.7444 14.3931 12.7484 11.985 10.6667 11.4444C11.0452 11.8048 11.3696 13.2775 11.2222 14.2222C10.9199 16.1602 8.7445 16.0541 8.17675 18.2162Z" stroke="white" stroke-width="2" stroke-linejoin="round"/>
</svg>
