<svg width="81" height="24" viewBox="0 0 81 24" fill="none" xmlns="http://www.w3.org/2000/svg">
<path d="M10.1765 11C10.1765 17.6274 11.8039 24 5.17646 24C0.814313 24 0.0284007 18.8013 0.000772925 15.2475C-0.0160196 13.0874 -0.0160197 10.9126 0.000772929 8.75253C0.0284008 5.19868 0.814313 0 5.17646 0C11.8039 0 -0.823242 8 10.1765 11Z" fill="#FFBB37"/>
<path d="M14.953 15.1C15.133 16.92 16.353 18.1 18.753 18.1C20.833 18.1 22.153 16.8 22.153 15.3C22.153 12.02 17.453 12.78 17.453 11.5C17.453 11 17.853 10.6 18.553 10.6C19.253 10.6 19.753 11.1 19.853 11.5H22.053C21.833 9.9 20.673 8.7 18.453 8.7C16.453 8.7 15.153 10 15.153 11.5C15.153 14.68 19.853 13.9 19.853 15.2C19.853 15.7 19.353 16.2 18.553 16.2C17.753 16.2 17.253 15.72 17.153 15.1H14.953ZM29.5515 18H31.2515V12.3C31.2515 10.22 29.7315 8.7 27.6515 8.7C25.3515 8.7 23.9715 10.12 23.7515 11.8H26.0515C26.0915 11.62 26.1715 11.44 26.2915 11.3C26.5115 11.06 26.8315 10.8 27.4515 10.8C28.3515 10.8 28.9515 11.38 28.9515 12.4C24.7515 12.4 23.4515 13.68 23.4515 15.5C23.4515 17.02 24.5515 18.1 26.5515 18.1C27.3515 18.1 27.9915 17.86 28.4515 17.6C28.7115 17.46 28.9315 17.28 29.1515 17.1L29.5515 18ZM28.9515 14.4C28.9515 15.52 28.1515 16.3 26.9515 16.3C26.2515 16.3 25.7515 15.8 25.7515 15.3C25.7515 14.5 26.2515 14 28.9515 14V14.4ZM39.5437 21.2H41.8437V8.8H40.1437L39.7437 9.7C39.5237 9.52 39.3037 9.34 39.0437 9.2C38.5837 8.96 37.9437 8.7 37.1437 8.7C34.8437 8.7 32.8437 10.68 32.8437 13.4C32.8437 16.12 34.8437 18.1 37.1437 18.1C37.8837 18.1 38.4837 17.88 38.9037 17.66C39.1437 17.52 39.3637 17.38 39.5437 17.2V21.2ZM37.4437 15.9C36.1437 15.9 35.1437 14.92 35.1437 13.4C35.1437 11.88 36.1437 10.9 37.4437 10.9C38.7437 10.9 39.7437 11.88 39.7437 13.4C39.7437 14.92 38.7437 15.9 37.4437 15.9ZM44.7468 14.8C44.7468 16.8 46.0268 18.1 47.8468 18.1C48.1468 18.1 48.4068 18.06 48.6268 18C48.7468 17.98 48.8468 17.94 48.9468 17.9V15.9L48.7868 15.96C48.6868 15.98 48.5668 16 48.3468 16C47.5468 16 47.0468 15.5 47.0468 14.7V10.9H49.0468V8.8H47.0468V6.6H45.0468V7.9C45.0468 8.64 44.6868 9 43.9468 9H43.3468V10.9H44.7468V14.8ZM56.446 18H58.146V12.3C58.146 10.22 56.626 8.7 54.546 8.7C52.246 8.7 50.866 10.12 50.646 11.8H52.946C52.986 11.62 53.066 11.44 53.186 11.3C53.406 11.06 53.726 10.8 54.346 10.8C55.246 10.8 55.846 11.38 55.846 12.4C51.646 12.4 50.346 13.68 50.346 15.5C50.346 17.02 51.446 18.1 53.446 18.1C54.246 18.1 54.886 17.86 55.346 17.6C55.606 17.46 55.826 17.28 56.046 17.1L56.446 18ZM55.846 14.4C55.846 15.52 55.046 16.3 53.846 16.3C53.146 16.3 52.646 15.8 52.646 15.3C52.646 14.5 53.146 14 55.846 14V14.4ZM60.2382 18H62.5382V12.9C62.5382 11.7 63.3182 10.9 64.4382 10.9C65.5582 10.9 66.3382 11.7 66.3382 12.9V18H68.6382V12.6C68.6382 10.2 67.1182 8.7 64.9382 8.7C64.1582 8.7 63.5382 8.96 63.0782 9.2C62.8182 9.34 62.5582 9.52 62.3382 9.7L61.9382 8.8H60.2382V18ZM70.746 14.2C70.746 16.6 72.266 18.1 74.446 18.1C75.186 18.1 75.846 17.86 76.306 17.6C76.566 17.46 76.826 17.28 77.046 17.1L77.446 18H79.146V8.8H76.846V13.9C76.846 15.1 76.066 15.9 74.946 15.9C73.826 15.9 73.046 15.1 73.046 13.9V8.8H70.746V14.2Z" fill="#151C22"/>
</svg>
